<?xml version="1.0" encoding="utf-8"?><svg viewBox="0 0 549 692" xmlns="http://www.w3.org/2000/svg" xmlns:xlink="http://www.w3.org/1999/xlink"><style>:root>svg{display:none}:root>svg:target{display:block}</style><svg viewBox="0 0 81 14" id="arrow" xmlns="http://www.w3.org/2000/svg"><path d="M0 7h79m0 0-7-6m7 6-7 6" stroke="#fff" stroke-width="2"/></svg><svg viewBox="0 0 17 16" id="go-to-arrow" xmlns="http://www.w3.org/2000/svg"><path d="m1.5 15 14-14m0 0H2.717M15.5 1v12.783" stroke-width="2" stroke="#9f9" stroke-linecap="round" stroke-linejoin="round"/></svg><svg fill="none" viewBox="0 0 549 692" id="history--time-line" xmlns="http://www.w3.org/2000/svg"><circle cx="350" cy="346" r="199" fill="#9F9"/><path d="M255.4 212v-13.6l57-55c5.067-4.8 8.8-9 11.2-12.6 2.533-3.733 4.2-7.133 5-10.2.933-3.2 1.4-6.267 1.4-9.2 0-7.2-2.533-12.867-7.6-17-5.067-4.133-12.467-6.2-22.2-6.2-7.467 0-14.2 1.267-20.2 3.8-6 2.4-11.2 6.2-15.6 11.4l-13.6-11.8c5.333-6.8 12.467-12 21.4-15.6 9.067-3.733 19-5.6 29.8-5.6 9.733 0 18.2 1.6 25.4 4.8 7.2 3.067 12.733 7.533 16.6 13.4 4 5.867 6 12.8 6 20.8 0 4.533-.6 9-1.8 13.4-1.2 4.4-3.467 9.067-6.8 14-3.333 4.933-8.133 10.467-14.4 16.6l-50.8 49-4.8-7.8H356V212H255.4Zm174.048 1.6c-10.933 0-20.733-2.8-29.4-8.4-8.533-5.6-15.333-13.733-20.4-24.4-4.933-10.667-7.4-23.6-7.4-38.8 0-15.2 2.467-28.133 7.4-38.8 5.067-10.667 11.867-18.8 20.4-24.4 8.667-5.6 18.467-8.4 29.4-8.4 10.8 0 20.534 2.8 29.2 8.4 8.667 5.6 15.467 13.733 20.4 24.4 4.934 10.667 7.4 23.6 7.4 38.8 0 15.2-2.466 28.133-7.4 38.8-4.933 10.667-11.733 18.8-20.4 24.4-8.666 5.6-18.4 8.4-29.2 8.4Zm0-17.8c7.334 0 13.734-2 19.2-6 5.6-4 9.934-10 13-18 3.2-8 4.8-17.933 4.8-29.8s-1.6-21.8-4.8-29.8c-3.066-8-7.4-14-13-18-5.466-4-11.866-6-19.2-6-7.333 0-13.8 2-19.4 6-5.6 4-10 10-13.2 18-3.066 8-4.6 17.933-4.6 29.8s1.534 21.8 4.6 29.8c3.2 8 7.6 14 13.2 18s12.067 6 19.4 6ZM255.4 624v-13.6l57-55c5.067-4.8 8.8-9 11.2-12.6 2.533-3.733 4.2-7.133 5-10.2.933-3.2 1.4-6.267 1.4-9.2 0-7.2-2.533-12.867-7.6-17-5.067-4.133-12.467-6.2-22.2-6.2-7.467 0-14.2 1.267-20.2 3.8-6 2.4-11.2 6.2-15.6 11.4l-13.6-11.8c5.333-6.8 12.467-12 21.4-15.6 9.067-3.733 19-5.6 29.8-5.6 9.733 0 18.2 1.6 25.4 4.8 7.2 3.067 12.733 7.533 16.6 13.4 4 5.867 6 12.8 6 20.8 0 4.533-.6 9-1.8 13.4-1.2 4.4-3.467 9.067-6.8 14-3.333 4.933-8.133 10.467-14.4 16.6l-50.8 49-4.8-7.8H356V624H255.4Zm114.844 0v-13.6l57-55c5.066-4.8 8.8-9 11.2-12.6 2.533-3.733 4.2-7.133 5-10.2.933-3.2 1.4-6.267 1.4-9.2 0-7.2-2.534-12.867-7.6-17-5.067-4.133-12.467-6.2-22.2-6.2-7.467 0-14.2 1.267-20.2 3.8-6 2.4-11.2 6.2-15.6 11.4l-13.6-11.8c5.333-6.8 12.466-12 21.4-15.6 9.066-3.733 19-5.6 29.8-5.6 9.733 0 18.2 1.6 25.4 4.8 7.2 3.067 12.733 7.533 16.6 13.4 4 5.867 6 12.8 6 20.8 0 4.533-.6 9-1.8 13.4-1.2 4.4-3.467 9.067-6.8 14-3.334 4.933-8.134 10.467-14.4 16.6l-50.8 49-4.8-7.8h84.6V624h-100.6Z" fill="#F3F3F3"/><path d="M7.4 418v-13.6l57-55c5.067-4.8 8.8-9 11.2-12.6 2.533-3.733 4.2-7.133 5-10.2.933-3.2 1.4-6.267 1.4-9.2 0-7.2-2.533-12.867-7.6-17-5.067-4.133-12.467-6.2-22.2-6.2-7.467 0-14.2 1.267-20.2 3.8-6 2.4-11.2 6.2-15.6 11.4L2.8 297.6c5.333-6.8 12.467-12 21.4-15.6 9.067-3.733 19-5.6 29.8-5.6 9.733 0 18.2 1.6 25.4 4.8 7.2 3.067 12.733 7.533 16.6 13.4 4 5.867 6 12.8 6 20.8 0 4.533-.6 9-1.8 13.4-1.2 4.4-3.467 9.067-6.8 14-3.333 4.933-8.133 10.467-14.4 16.6l-50.8 49-4.8-7.8H108V418H7.4Zm174.048 1.6c-10.933 0-20.733-2.8-29.4-8.4-8.533-5.6-15.333-13.733-20.4-24.4-4.933-10.667-7.4-23.6-7.4-38.8 0-15.2 2.467-28.133 7.4-38.8 5.067-10.667 11.867-18.8 20.4-24.4 8.667-5.6 18.467-8.4 29.4-8.4 10.8 0 20.534 2.8 29.2 8.4 8.667 5.6 15.467 13.733 20.4 24.4 4.934 10.667 7.4 23.6 7.4 38.8 0 15.2-2.466 28.133-7.4 38.8-4.933 10.667-11.733 18.8-20.4 24.4-8.666 5.6-18.4 8.4-29.2 8.4Zm0-17.8c7.334 0 13.734-2 19.2-6 5.6-4 9.934-10 13-18 3.2-8 4.8-17.933 4.8-29.8s-1.6-21.8-4.8-29.8c-3.066-8-7.4-14-13-18-5.466-4-11.866-6-19.2-6-7.333 0-13.8 2-19.4 6-5.6 4-10 10-13.2 18-3.066 8-4.6 17.933-4.6 29.8s1.534 21.8 4.6 29.8c3.2 8 7.6 14 13.2 18s12.067 6 19.4 6Zm73.999 16.2v-13.6l57-55c5.067-4.8 8.8-9 11.2-12.6 2.533-3.733 4.2-7.133 5-10.2.933-3.2 1.4-6.267 1.4-9.2 0-7.2-2.533-12.867-7.6-17-5.067-4.133-12.467-6.2-22.2-6.2-7.467 0-14.2 1.267-20.2 3.8-6 2.4-11.2 6.2-15.6 11.4l-13.6-11.8c5.333-6.8 12.467-12 21.4-15.6 9.067-3.733 19-5.6 29.8-5.6 9.733 0 18.2 1.6 25.4 4.8 7.2 3.067 12.733 7.533 16.6 13.4 4 5.867 6 12.8 6 20.8 0 4.533-.6 9-1.8 13.4-1.2 4.4-3.467 9.067-6.8 14-3.333 4.933-8.133 10.467-14.4 16.6l-50.8 49-4.8-7.8h84.6V418h-100.6Zm140.644 0V286l8.6 9.4h-40.2V278h51.4v140h-19.8Z" fill="#003B77"/></svg><svg fill="none" viewBox="0 0 414 218" id="history--time-line-mobile" xmlns="http://www.w3.org/2000/svg"><circle cx="207" cy="109" r="109" fill="#9F9"/><path d="M122.577 138v-5.44l22.8-22c2.027-1.92 3.52-3.6 4.48-5.04 1.014-1.493 1.68-2.853 2-4.08.374-1.28.56-2.507.56-3.68 0-2.88-1.013-5.147-3.04-6.8-2.026-1.653-4.986-2.48-8.88-2.48-2.986 0-5.68.507-8.08 1.52-2.4.96-4.48 2.48-6.24 4.56l-5.44-4.72c2.134-2.72 4.987-4.8 8.56-6.24 3.627-1.493 7.6-2.24 11.92-2.24 3.894 0 7.28.64 10.16 1.92 2.88 1.227 5.094 3.013 6.64 5.36 1.6 2.347 2.4 5.12 2.4 8.32 0 1.813-.24 3.6-.72 5.36-.48 1.76-1.386 3.627-2.72 5.6-1.333 1.973-3.253 4.187-5.76 6.64l-20.32 19.6-1.92-3.12h33.84V138h-40.24Zm69.62.64c-4.374 0-8.294-1.12-11.76-3.36-3.414-2.24-6.134-5.493-8.16-9.76-1.974-4.267-2.96-9.44-2.96-15.52s.986-11.253 2.96-15.52c2.026-4.267 4.746-7.52 8.16-9.76 3.466-2.24 7.386-3.36 11.76-3.36 4.32 0 8.213 1.12 11.68 3.36 3.466 2.24 6.186 5.493 8.16 9.76 1.973 4.267 2.96 9.44 2.96 15.52s-.987 11.253-2.96 15.52c-1.974 4.267-4.694 7.52-8.16 9.76-3.467 2.24-7.36 3.36-11.68 3.36Zm0-7.12c2.933 0 5.493-.8 7.68-2.4 2.24-1.6 3.973-4 5.2-7.2 1.28-3.2 1.92-7.173 1.92-11.92s-.64-8.72-1.92-11.92c-1.227-3.2-2.96-5.6-5.2-7.2-2.187-1.6-4.747-2.4-7.68-2.4-2.934 0-5.52.8-7.76 2.4-2.24 1.6-4 4-5.28 7.2-1.227 3.2-1.84 7.173-1.84 11.92s.613 8.72 1.84 11.92c1.28 3.2 3.04 5.6 5.28 7.2 2.24 1.6 4.826 2.4 7.76 2.4Zm29.599 6.48v-5.44l22.8-22c2.027-1.92 3.52-3.6 4.48-5.04 1.013-1.493 1.68-2.853 2-4.08.373-1.28.56-2.507.56-3.68 0-2.88-1.013-5.147-3.04-6.8-2.027-1.653-4.987-2.48-8.88-2.48-2.987 0-5.68.507-8.08 1.52-2.4.96-4.48 2.48-6.24 4.56l-5.44-4.72c2.133-2.72 4.987-4.8 8.56-6.24 3.627-1.493 7.6-2.24 11.92-2.24 3.893 0 7.28.64 10.16 1.92 2.88 1.227 5.093 3.013 6.64 5.36 1.6 2.347 2.4 5.12 2.4 8.32 0 1.813-.24 3.6-.72 5.36-.48 1.76-1.387 3.627-2.72 5.6-1.333 1.973-3.253 4.187-5.76 6.64l-20.32 19.6-1.92-3.12h33.84V138h-40.24Zm56.257 0V85.2l3.44 3.76h-16.08V82h20.56v56h-7.92Z" fill="#003B77"/><path d="M-95.423 138v-5.44l22.8-22c2.027-1.92 3.52-3.6 4.48-5.04 1.014-1.493 1.68-2.853 2-4.08.374-1.28.56-2.507.56-3.68 0-2.88-1.013-5.147-3.04-6.8-2.026-1.653-4.986-2.48-8.88-2.48-2.987 0-5.68.507-8.08 1.52-2.4.96-4.48 2.48-6.24 4.56l-5.44-4.72c2.134-2.72 4.987-4.8 8.56-6.24 3.627-1.493 7.6-2.24 11.92-2.24 3.894 0 7.28.64 10.16 1.92 2.88 1.227 5.094 3.013 6.64 5.36 1.6 2.347 2.4 5.12 2.4 8.32 0 1.813-.24 3.6-.72 5.36-.48 1.76-1.387 3.627-2.72 5.6-1.333 1.973-3.253 4.187-5.76 6.64l-20.32 19.6-1.92-3.12h33.84V138h-40.24Zm69.62.64c-4.374 0-8.294-1.12-11.76-3.36-3.414-2.24-6.134-5.493-8.16-9.76-1.974-4.267-2.96-9.44-2.96-15.52s.986-11.253 2.96-15.52c2.026-4.267 4.746-7.52 8.16-9.76 3.466-2.24 7.386-3.36 11.76-3.36 4.32 0 8.213 1.12 11.68 3.36 3.466 2.24 6.186 5.493 8.16 9.76 1.973 4.267 2.96 9.44 2.96 15.52s-.987 11.253-2.96 15.52c-1.974 4.267-4.694 7.52-8.16 9.76-3.467 2.24-7.36 3.36-11.68 3.36Zm0-7.12c2.933 0 5.493-.8 7.68-2.4 2.24-1.6 3.973-4 5.2-7.2 1.28-3.2 1.92-7.173 1.92-11.92s-.64-8.72-1.92-11.92c-1.227-3.2-2.96-5.6-5.2-7.2-2.187-1.6-4.747-2.4-7.68-2.4-2.934 0-5.52.8-7.76 2.4-2.24 1.6-4 4-5.28 7.2-1.227 3.2-1.84 7.173-1.84 11.92s.613 8.72 1.84 11.92c1.28 3.2 3.04 5.6 5.28 7.2 2.24 1.6 4.826 2.4 7.76 2.4ZM3.796 138v-5.44l22.8-22c2.027-1.92 3.52-3.6 4.48-5.04 1.013-1.493 1.68-2.853 2-4.08.373-1.28.56-2.507.56-3.68 0-2.88-1.013-5.147-3.04-6.8-2.027-1.653-4.987-2.48-8.88-2.48-2.987 0-5.68.507-8.08 1.52-2.4.96-4.48 2.48-6.24 4.56l-5.44-4.72c2.133-2.72 4.987-4.8 8.56-6.24 3.627-1.493 7.6-2.24 11.92-2.24 3.893 0 7.28.64 10.16 1.92 2.88 1.227 5.093 3.013 6.64 5.36 1.6 2.347 2.4 5.12 2.4 8.32 0 1.813-.24 3.6-.72 5.36-.48 1.76-1.387 3.627-2.72 5.6-1.333 1.973-3.253 4.187-5.76 6.64l-20.32 19.6-1.92-3.12h33.84V138H3.796Zm56.257 0V85.2l3.44 3.76h-16.08V82h20.56v56h-7.92Zm280.524 0v-5.44l22.8-22c2.027-1.92 3.52-3.6 4.48-5.04 1.014-1.493 1.68-2.853 2-4.08.374-1.28.56-2.507.56-3.68 0-2.88-1.013-5.147-3.04-6.8-2.026-1.653-4.986-2.48-8.88-2.48-2.986 0-5.68.507-8.08 1.52-2.4.96-4.48 2.48-6.24 4.56l-5.44-4.72c2.134-2.72 4.987-4.8 8.56-6.24 3.627-1.493 7.6-2.24 11.92-2.24 3.894 0 7.28.64 10.16 1.92 2.88 1.227 5.094 3.013 6.64 5.36 1.6 2.347 2.4 5.12 2.4 8.32 0 1.813-.24 3.6-.72 5.36-.48 1.76-1.386 3.627-2.72 5.6-1.333 1.973-3.253 4.187-5.76 6.64l-20.32 19.6-1.92-3.12h33.84V138h-40.24Zm69.62.64c-4.374 0-8.294-1.12-11.76-3.36-3.414-2.24-6.134-5.493-8.16-9.76-1.974-4.267-2.96-9.44-2.96-15.52s.986-11.253 2.96-15.52c2.026-4.267 4.746-7.52 8.16-9.76 3.466-2.24 7.386-3.36 11.76-3.36 4.32 0 8.213 1.12 11.68 3.36 3.466 2.24 6.186 5.493 8.16 9.76 1.973 4.267 2.96 9.44 2.96 15.52s-.987 11.253-2.96 15.52c-1.974 4.267-4.694 7.52-8.16 9.76-3.467 2.24-7.36 3.36-11.68 3.36Zm0-7.12c2.933 0 5.493-.8 7.68-2.4 2.24-1.6 3.973-4 5.2-7.2 1.28-3.2 1.92-7.173 1.92-11.92s-.64-8.72-1.92-11.92c-1.227-3.2-2.96-5.6-5.2-7.2-2.187-1.6-4.747-2.4-7.68-2.4-2.934 0-5.52.8-7.76 2.4-2.24 1.6-4 4-5.28 7.2-1.227 3.2-1.84 7.173-1.84 11.92s.613 8.72 1.84 11.92c1.28 3.2 3.04 5.6 5.28 7.2 2.24 1.6 4.826 2.4 7.76 2.4Zm29.599 6.48v-5.44l22.8-22c2.027-1.92 3.52-3.6 4.48-5.04 1.013-1.493 1.68-2.853 2-4.08.373-1.28.56-2.507.56-3.68 0-2.88-1.013-5.147-3.04-6.8-2.027-1.653-4.987-2.48-8.88-2.48-2.987 0-5.68.507-8.08 1.52-2.4.96-4.48 2.48-6.24 4.56l-5.44-4.72c2.133-2.72 4.987-4.8 8.56-6.24 3.627-1.493 7.6-2.24 11.92-2.24 3.893 0 7.28.64 10.16 1.92 2.88 1.227 5.093 3.013 6.64 5.36 1.6 2.347 2.4 5.12 2.4 8.32 0 1.813-.24 3.6-.72 5.36-.48 1.76-1.387 3.627-2.72 5.6-1.333 1.973-3.253 4.187-5.76 6.64l-20.32 19.6-1.92-3.12h33.84V138h-40.24Zm56.257 0V85.2l3.44 3.76h-16.08V82h20.56v56h-7.92Z" fill="#F3F3F3"/></svg><svg fill="none" viewBox="0 0 192 33" id="logo" xmlns="http://www.w3.org/2000/svg"><path fill-rule="evenodd" clip-rule="evenodd" d="M192 0H34.298l-.097 33h157.702L192 0Z" fill="#003D6E"/><path d="M56.006 16.048h10.517v.854c0 4.003-1.136 7.163-3.413 9.482-2.276 2.319-5.38 3.475-9.315 3.475a14.83 14.83 0 0 1-3.424-.38 12.395 12.395 0 0 1-3.002-1.114c-2.093-1.145-3.71-2.728-4.845-4.75-1.135-2.022-1.706-4.317-1.706-6.89 0-2.118.339-4.033 1.016-5.741a12.566 12.566 0 0 1 3.074-4.507 11.426 11.426 0 0 1 4.006-2.467c1.522-.557 3.205-.836 5.053-.836 2.45 0 4.572.445 6.373 1.329 1.801.889 3.293 2.223 4.476 4.002l-2.544 2.034c-.915-1.542-2.063-2.692-3.43-3.463-1.367-.77-2.96-1.156-4.774-1.156-2.96 0-5.362.996-7.204 2.989-1.85 1.992-2.77 4.595-2.77 7.815 0 3.036.938 5.527 2.811 7.472 1.873 1.945 4.262 2.917 7.163 2.917 2.557 0 4.685-.77 6.385-2.318 1.7-1.548 2.645-3.558 2.83-6.037h-7.277v-2.71Zm18.845 13.135V6.631H67.64V3.75h17.454v2.882h-7.176v22.552h-3.067Zm13.625 0V3.749h3.032v9.785h13.548V3.749h3.085v25.434h-3.085V16.416H91.508v12.767h-3.032Zm25.759 0V3.749h5.986c1.712 0 2.96.095 3.757.285a5.585 5.585 0 0 1 2.099.984c.754.587 1.343 1.382 1.759 2.372.422.99.63 2.088.63 3.292 0 2.081-.582 3.664-1.754 4.75-1.165 1.085-2.877 1.624-5.13 1.624h-.541l9.743 12.127h-3.851l-9.304-12.127h-.434v12.127h-2.96Zm2.96-22.878v8.51h2.313c2.371 0 3.959-.303 4.761-.913.803-.605 1.201-1.667 1.201-3.185 0-1.63-.41-2.775-1.237-3.433-.826-.653-2.401-.979-4.725-.979h-2.313Zm16.128 22.878V3.749h13.447v2.764h-10.415v7.293h10.415v2.817h-10.415v9.743h10.415v2.817h-13.447Zm18.583 0V3.749h13.447v2.764h-10.415v7.293h10.415v2.817h-10.415v9.743h10.415v2.817h-13.447Zm27.863-14.125c1.658.706 2.912 1.642 3.757 2.81.838 1.175 1.26 2.556 1.26 4.152 0 2.342-.743 4.228-2.235 5.657-1.492 1.429-3.472 2.146-5.933 2.146-2.009 0-3.692-.51-5.053-1.536-1.355-1.025-2.271-2.484-2.746-4.37l2.746-1.358c.375 1.542.987 2.71 1.837 3.499.856.794 1.926 1.192 3.216 1.192 1.522 0 2.752-.439 3.692-1.31.939-.878 1.409-2.011 1.409-3.416 0-1.133-.327-2.123-.981-2.96-.66-.842-1.647-1.547-2.973-2.128l-3.097-1.323c-1.694-.705-2.96-1.613-3.787-2.728-.832-1.108-1.248-2.443-1.248-3.99 0-1.809.672-3.303 2.021-4.483 1.344-1.18 3.062-1.773 5.154-1.773 1.534 0 2.86.326 3.977.972 1.124.646 1.998 1.607 2.622 2.87l-2.509 1.595c-.564-.984-1.207-1.713-1.914-2.194a4.182 4.182 0 0 0-2.402-.723c-1.135 0-2.068.35-2.794 1.044-.725.693-1.087 1.577-1.087 2.656 0 .902.279 1.684.838 2.342.553.665 1.42 1.246 2.592 1.756l3.638 1.6Z" fill="#FEFEFE"/><path fill-rule="evenodd" clip-rule="evenodd" d="M0 .197h32.621v3.515H3.323v11.03H29.3V11.85H16.29V8.335h16.33v24.466H0v-3.514h29.299v-11.03H3.323v2.892h13.011v3.515H0V.197Z" fill="#003D6E"/><path fill-rule="evenodd" clip-rule="evenodd" d="M16.317 4.12h16.305v.404H16.317v-.405ZM.014 25.089h16.305v.405H.014v-.405ZM16.317 6.605h16.305v.405H16.317v-.405ZM.014 27.575h16.305v.405H.014v-.405ZM16.317 4.976h16.305v.404H16.317v-.404ZM.014 25.945h16.305v.405H.014v-.405ZM16.317 7.462h16.305v.405H16.317v-.405ZM.014 28.432h16.305v.404H.014v-.404ZM16.317 5.83h16.305v.405H16.317V5.83ZM.014 26.8h16.305v.405H.014V26.8Z" fill="#A8D4AF"/></svg><svg viewBox="0 0 27 27" id="social--skype" xmlns="http://www.w3.org/2000/svg"><path d="M7.174.032C5.232.333 3.795 1.046 2.449 2.366 1.012 3.786.245 5.386.036 7.429c-.134 1.246.118 2.83.622 3.949.123.274.123.3.096 1.51-.032 1.24.011 1.864.177 2.761.714 3.838 3.234 7.201 6.71 8.938 1.238.623 2.38.993 3.77 1.23.536.09.922.116 1.93.127l1.26.01.564.27c.622.3 1.292.528 1.984.676.365.079.687.1 1.61.1 1.013 0 1.222-.016 1.71-.121 1.63-.36 2.885-1.046 4.087-2.223.745-.74 1.18-1.325 1.603-2.191a8.197 8.197 0 0 0 .048-7.133l-.177-.37.017-1.293c.021-1.832-.14-2.893-.67-4.435-1.53-4.45-5.509-7.703-10.239-8.368-.75-.11-1.99-.148-2.644-.09l-.552.048-.478-.2C10.414.173 9.432-.01 8.166 0c-.472.006-.917.022-.992.032Zm2.413 1.415a7.693 7.693 0 0 1 1.652.56l.44.21.44-.057c.638-.08 2.123-.064 2.767.026 5.653.792 9.852 5.586 9.82 11.22 0 .39-.032.95-.065 1.24l-.064.528.257.49c.51.962.73 1.79.773 2.926.064 1.731-.397 3.152-1.464 4.508-1.234 1.563-3.047 2.492-5.063 2.593-1.33.063-2.698-.27-3.76-.914l-.386-.237-.756.063c-1.899.148-4-.27-5.744-1.14-1.27-.634-2.118-1.246-3.089-2.223a11.22 11.22 0 0 1-3.073-5.844c-.204-1.035-.241-2.646-.086-3.559.054-.317.049-.343-.107-.655-.236-.454-.515-1.309-.617-1.863-.102-.597-.102-1.658 0-2.302.467-2.82 2.789-5.127 5.664-5.623.573-.095 1.893-.068 2.461.053Z"/><path d="M14.403 6.273a7.124 7.124 0 0 1 1.77.596c1.277.613 2.033 1.41 2.135 2.26.09.781-.467 1.372-1.309 1.372-.483 0-.686-.121-1.432-.87-.515-.518-.719-.682-1.019-.83-1.158-.575-2.917-.533-3.743.085-.703.523-.864 1.483-.354 2.059.45.502.933.681 3.314 1.214 2.006.449 2.397.57 3.073.914.542.274 1.159.802 1.464 1.261.424.629.665 1.632.596 2.492-.13 1.552-.928 2.698-2.366 3.395-1.061.512-2.166.707-3.727.665-1.421-.042-2.467-.269-3.405-.744-1.379-.697-2.172-1.695-2.172-2.714 0-.739.498-1.246 1.233-1.246.58 0 .697.09 1.834 1.394.569.65 1.057.924 1.947 1.093.574.11 1.593.069 2.011-.08.982-.342 1.529-.934 1.593-1.715.059-.702-.268-1.257-.917-1.547-.161-.069-1.26-.375-2.451-.676-1.19-.3-2.322-.607-2.515-.68-1.4-.518-2.215-1.3-2.585-2.466-.102-.333-.124-.513-.124-1.136 0-.834.075-1.177.376-1.795C8.22 7.371 9.652 6.5 11.545 6.2c.68-.106 2.188-.069 2.858.074Z"/></svg><svg style="fill-rule:evenodd;clip-rule:evenodd;stroke-linejoin:round;stroke-miterlimit:2" viewBox="0 0 64 64" xml:space="preserve" id="social--telegram" xmlns="http://www.w3.org/2000/svg"><path style="fill:none" d="M0 0h64v64H0z"/><path d="M33.093 28.658c-3.818 3.513-7.544 6.837-7.544 6.837a1.25 1.25 0 1 0 1.665 1.865s9.76-8.712 13.928-12.88c.637-.635.828-1.122.862-1.324a1.242 1.242 0 0 0-.353-1.14 1.294 1.294 0 0 0-.905-.398c-.212-.01-.684.073-1.319.372C35.795 23.7 21.35 33.322 21.35 33.322a1.25 1.25 0 1 0 1.386 2.08s5.377-3.586 10.357-6.744Z"/><path d="M32 2.75C15.856 2.75 2.75 15.856 2.75 32S15.856 61.25 32 61.25 61.25 48.144 61.25 32 48.144 2.75 32 2.75Zm0 2.5c14.764 0 26.75 11.986 26.75 26.75S46.764 58.75 32 58.75 5.25 46.764 5.25 32 17.236 5.25 32 5.25Z"/><path d="m21.04 35.352 2.674 8.7c.01.032.021.063.033.094.285.714.57 1.13.775 1.326.37.356.748.439 1.063.43.441-.013 1.153-.277 1.436-1.324.02-.077.034-.155.04-.234l.404-5.569 10.564 7.771c1.086.824 2.062.999 2.801.774.763-.233 1.501-.932 1.85-2.42l.006-.026L47.901 20.3c.31-1.308.136-2.286-.289-2.858-.493-.664-1.426-1.116-3.013-.687a1 1 0 0 0-.126.041l-30.63 11.88c-.047.018-.094.04-.139.063-1.451.78-1.774 1.67-1.779 2.247-.005.777.54 1.529 1.465 1.9.028.01.055.022.084.03l7.566 2.435Zm24.51-16.24c-.011.179-.036.42-.084.624l-.008.032-5.213 24.57a3.26 3.26 0 0 1-.19.518 3.37 3.37 0 0 1-.518-.305l-.019-.014-12.396-9.116a1.251 1.251 0 0 0-1.987.916l-.225 3.095-1.672-5.437a1.25 1.25 0 0 0-.812-.823L15.18 30.84l30.126-11.685a2.55 2.55 0 0 1 .245-.043Z"/><path d="m26.404 45.591 5.435-4.693a1.25 1.25 0 0 0-1.634-1.892L24.771 43.7a1.25 1.25 0 1 0 1.633 1.892Z"/></svg><svg viewBox="0 0 25 27" id="social--viber" xmlns="http://www.w3.org/2000/svg"><path d="M9.446.048C7.726.143 5.628.37 5.01.518c-1.164.28-2.143.844-3.014 1.736-.917.94-1.494 2.037-1.72 3.288-.212 1.182-.346 6.142-.238 8.802.072 1.673.145 2.791.212 3.25.237 1.547 1.133 3.072 2.37 4.027 1.02.786 1.993 1.145 3.596 1.324l.577.069v2.005c0 1.879.005 2 .092 1.98.047-.017 1.51-.85 3.246-1.853l3.158-1.82.526-.032c.288-.016 1.056-.053 1.71-.085 2.216-.105 4.112-.322 4.905-.56 2.143-.638 3.828-2.516 4.297-4.796.19-.929.278-2.897.273-6.28 0-3.266-.083-5.213-.258-6.095a6.375 6.375 0 0 0-1.844-3.366A6.267 6.267 0 0 0 20.317.597C19.6.386 17.746.175 15.448.043c-1.04-.058-4.94-.058-6.002.005Zm4.765 1.177c2.087.042 4.766.285 5.637.512 1.669.433 3.091 1.82 3.601 3.504.278.918.371 2.543.371 6.464-.005 5.377-.15 6.433-1.056 7.779-.31.453-.922 1.076-1.355 1.366a5.22 5.22 0 0 1-1.432.665c-.84.232-3.354.47-6.049.565l-.979.032-2.457 1.42c-1.35.78-2.468 1.419-2.484 1.419-.015 0-.03-.681-.03-1.52v-1.515l-1.247-.142c-.69-.08-1.386-.18-1.556-.227a5.064 5.064 0 0 1-3.215-2.612c-.428-.84-.536-1.293-.623-2.56-.217-3.081-.196-7.61.046-10.084.232-2.364 1.953-4.248 4.25-4.66.371-.063 2.118-.242 3.195-.327.762-.058 3.488-.142 3.838-.116.098.005.793.026 1.545.037Z"/><path d="M12.511 4.687h.304c.845 0 1.87.258 2.71.68 1.767.898 2.829 2.449 3.138 4.613.046.306.082.675.082.823v.269h1.2l-.03-.607c-.17-2.976-1.675-5.288-4.158-6.375-.809-.353-2.02-.617-2.844-.617h-.402v1.214Z"/><path d="M12.511 7.009h.253c.402 0 1.128.147 1.535.316 1.278.523 2.025 1.663 2.154 3.283l.036.464h1.174v-.243c0-.4-.15-1.314-.283-1.736-.629-1.963-2.19-3.14-4.338-3.282l-.53-.032v1.23Z"/><path d="m12.511 9.315.325.031c.855.085 1.21.433 1.334 1.304l.057.422h1.18l-.036-.406c-.072-.813-.279-1.325-.706-1.795-.407-.438-.953-.665-1.752-.733l-.402-.037v1.214ZM7.828 6.581c.294.195 1.675 1.636 1.747 1.82.067.19.067.486-.01.629a4.46 4.46 0 0 1-.356.48c-.5.607-.68 1.103-.675 1.852 0 .58.134 1.05.417 1.488.114.17.546.655.969 1.077 1.01 1.008 1.386 1.208 2.308 1.208.742 0 1.267-.21 1.85-.744.376-.338.484-.385.875-.37.217.006 1.963 1.78 2.05 2.075.099.343 0 .543-.514 1.06-.747.744-1.252.919-2.484.855-2.895-.158-5.311-1.535-6.872-3.926-.928-1.425-1.417-3.14-1.422-4.992 0-.929.19-1.425.814-2.095.572-.612.86-.707 1.303-.417Z"/></svg><svg viewBox="0 0 27 27" id="social--whatsapp" xmlns="http://www.w3.org/2000/svg"><path d="M11.909.071c-4.443.55-8.4 3.373-10.368 7.39-.464.955-.701 1.578-.95 2.512a13.54 13.54 0 0 0 .692 8.877l.227.523-.77 3.795C.312 25.252-.02 26.978 0 27c.021.015 1.746-.317 3.84-.745l3.8-.776.474.217c1.05.47 2.327.839 3.62 1.04.886.137 2.928.121 3.867-.027a13.354 13.354 0 0 0 3.93-1.25c3.667-1.795 6.347-5.247 7.202-9.28.358-1.662.353-3.905-.006-5.573a13.75 13.75 0 0 0-2.569-5.494c-.448-.576-1.704-1.832-2.28-2.28C19.897 1.3 17.66.372 15.233.072c-.796-.096-2.532-.096-3.323 0Zm2.943 1.299a12.396 12.396 0 0 1 6.258 2.57c.48.375 1.566 1.462 1.941 1.942 2.912 3.695 3.456 8.698 1.393 12.847-1.245 2.496-3.187 4.423-5.65 5.6-2.607 1.24-5.44 1.52-8.21.813-.701-.18-1.33-.407-2.105-.76l-.665-.301-3.049.622c-1.678.344-3.065.618-3.076.608-.01-.011.264-1.4.607-3.078l.622-3.05-.3-.665c-1.187-2.608-1.451-5.268-.792-7.97C3.03 5.624 7.23 1.934 12.278 1.37c.58-.064 1.983-.069 2.574 0Z"/><path d="M9.508 7.165c.211.127 1.63 1.499 1.878 1.815.385.48.338.824-.195 1.415-.897 1.003-1.071 2.317-.459 3.5.164.305.359.538 1.097 1.271.734.74.966.934 1.272 1.098.49.253.897.354 1.419.354.834 0 1.44-.243 2.095-.829.522-.47.88-.544 1.282-.259.09.059.564.528 1.065 1.04.971.992 1.024 1.077.94 1.51-.043.243-.74.981-1.204 1.288-.511.332-.775.39-1.804.385-.986-.006-1.577-.069-2.374-.27a9.551 9.551 0 0 1-5.893-4.322 9.367 9.367 0 0 1-1.113-2.686c-.2-.797-.264-1.389-.27-2.376-.005-1.235.111-1.578.797-2.338.591-.66 1.055-.85 1.467-.596Z"/></svg><svg fill="none" viewBox="0 0 143 63" id="sponsors--red-october" xmlns="http://www.w3.org/2000/svg"><path d="m12.189 20.253 7.23 9.248h-6.866a3.552 3.552 0 0 1-1.575-.364 3.656 3.656 0 0 1-1.266-1.03L0 15.616h6.07a3.663 3.663 0 0 0 2.555-1.01 3.874 3.874 0 0 0 1.193-2.534v-.223a3.98 3.98 0 0 0-.748-2.336A3.796 3.796 0 0 0 7.113 8.1a3.6 3.6 0 0 0-1.062-.144H4.93L0 1.542h6.45a9.813 9.813 0 0 1 5.895 1.994 10.286 10.286 0 0 1 3.617 5.188c.64 2.08.622 4.317-.054 6.386a10.27 10.27 0 0 1-3.704 5.123l-.015.02Zm16.976 28.154c.058 3.8-1.354 7.469-3.923 10.199-2.57 2.73-6.087 4.298-9.78 4.36-3.692.063-7.258-1.385-9.913-4.027-2.656-2.641-4.183-6.26-4.248-10.06v-.471c0-1.522.23-3.034.683-4.482.023-.083.05-.17.08-.258.85-2.397.94-3.849.125-6.191.759-.504 1.59-1.035 1.59-1.035.481.465 1.794 1.378 3.543.067a13.507 13.507 0 0 1 7.89-2.546c3.71.015 7.264 1.544 9.88 4.252 2.615 2.709 4.079 6.374 4.07 10.192h.003Zm-6.71 0a7.569 7.569 0 0 0-1.256-4.097 7.252 7.252 0 0 0-3.252-2.694 7.019 7.019 0 0 0-4.157-.387 7.151 7.151 0 0 0-3.669 2.05 7.49 7.49 0 0 0-1.95 3.799 7.617 7.617 0 0 0 .425 4.273 7.375 7.375 0 0 0 2.655 3.315 7.031 7.031 0 0 0 6.773.672 7.2 7.2 0 0 0 2.349-1.63 7.438 7.438 0 0 0 1.557-2.436 7.61 7.61 0 0 0 .524-2.864Zm18.06 8.757c-2.469 0-3.505-2.17-3.505-4.712 0-2.46.915-4.685 3.384-4.685a2.68 2.68 0 0 1 1.821.585 2.824 2.824 0 0 1 1.006 1.668h6.475a9.524 9.524 0 0 0-3.153-5.8 9.027 9.027 0 0 0-6.084-2.23c-6.411 0-10.273 4.684-10.273 10.407 0 6.555 4.7 10.572 10.193 10.572 5.493 0 8.562-3.514 9.678-8.237H43.46a3.102 3.102 0 0 1-1.056 1.753 2.948 2.948 0 0 1-1.892.679h.004ZM59.322 54.5v-6.023h4.173V42.66H59.32v-6.246h-6.734v6.254h-2.189v5.809h2.189v6.956c0 4.591 1.992 7.129 6.89 7.129a17.186 17.186 0 0 0 4.172-.613v-5.555c-.746.19-1.508.3-2.276.328-1.54 0-2.056-.438-2.056-2.214l.004-.008Zm25.599-2.05c0 5.779-4.173 10.541-10.194 10.541-5.891 0-10.193-4.59-10.193-10.54 0-6.063 4.34-10.45 10.194-10.45 6.046 0 10.19 4.516 10.19 10.45h.003Zm-6.73.044c0-2.378-1.115-4.384-3.463-4.384-2.349 0-3.464 1.885-3.464 4.384 0 2.498 1.354 4.384 3.463 4.384 2.277 0 3.46-1.886 3.46-4.384h.004Zm28.323.164c0 6.472-4.302 10.286-8.725 10.286a5.555 5.555 0 0 1-2.791-.632 5.746 5.746 0 0 1-2.14-1.948h-.198v1.924h-6.544V32.792h6.411v11.922h.213a7.755 7.755 0 0 1 2.606-1.897 7.561 7.561 0 0 1 3.13-.656c2.735 0 8.031 2.464 8.031 10.494l.007.004Zm-6.828-.043c0-2.378-1.116-4.466-3.665-4.466-1.87 0-3.505 1.803-3.505 4.427 0 2.705 1.517 4.509 3.505 4.509 2.462 0 3.657-2.257 3.657-4.47h.008Zm27.64-.203c.008.548-.019 1.095-.08 1.64h-13.369a4.027 4.027 0 0 0 1.089 2.816 3.8 3.8 0 0 0 2.705 1.2h.065a3.367 3.367 0 0 0 1.826-.462 3.49 3.49 0 0 0 1.318-1.38h6.207c-1.233 3.81-4.143 6.761-9.484 6.761-5.497 0-10.194-4.017-10.194-10.571 0-5.735 3.506-10.408 10.034-10.408 5.865 0 9.887 4.216 9.887 10.404h-.004Zm-6.491-2.733a3.628 3.628 0 0 0-1.143-2.268 3.433 3.433 0 0 0-2.321-.91c-.855 0-1.681.324-2.32.91a3.618 3.618 0 0 0-1.143 2.268h6.927Zm20.337-7.519c-2.587 0-4.578 1.597-5.853 3.904h-.197v-3.361h-6.499v19.628h6.73V53.28c0-2.662 1.233-4.754 4.7-4.754.988 0 1.974.082 2.948.245v-6.472a7.6 7.6 0 0 0-1.836-.164l.007.027ZM37.557 19.628a13.11 13.11 0 0 1-.08 1.64H24.078a4.025 4.025 0 0 0 1.089 2.817 3.8 3.8 0 0 0 2.705 1.2h.064a3.368 3.368 0 0 0 1.832-.47 3.5 3.5 0 0 0 1.317-1.392h6.21c-1.233 3.81-4.143 6.761-9.484 6.761-5.493 0-10.194-4.017-10.194-10.571 0-5.735 3.506-10.408 10.035-10.408 5.876.016 9.905 4.236 9.905 10.423Zm-6.491-2.732a3.623 3.623 0 0 0-1.143-2.269 3.43 3.43 0 0 0-2.32-.91 3.43 3.43 0 0 0-2.321.91 3.623 3.623 0 0 0-1.143 2.269h6.927ZM52.53 0h6.525v29.501h-6.411V27.66h-.197a7.755 7.755 0 0 1-2.607 1.89 7.562 7.562 0 0 1-3.126.651c-2.746 0-8.042-2.498-8.042-10.54 0-6.473 4.302-10.45 8.725-10.45a5.557 5.557 0 0 1 2.791.631 5.746 5.746 0 0 1 2.141 1.949h.201V0Zm.121 19.75c0-2.706-1.517-4.685-3.505-4.685-2.47 0-3.665 2.416-3.665 4.63 0 2.377 1.116 4.509 3.665 4.509 1.867 0 3.498-1.831 3.498-4.454h.008Z" fill="#111827"/></svg><svg fill="none" viewBox="0 0 197 69" id="sponsors--segezha" xmlns="http://www.w3.org/2000/svg"><path fill-rule="evenodd" clip-rule="evenodd" d="M161.884 27.717V41.3h5.132V26.67h1.654c2.046 0 2.751.33 3.286 1.53.354.794.39 1.435.394 6.988l.004 6.114h5.159l-.064-7.054c-.062-6.9-.074-7.077-.541-8.043a5.603 5.603 0 0 0-1.266-1.621c-1.42-1.144-2.088-1.32-5.494-1.42l-3.13-.097v-8.936h-5.134v13.585ZM95.1 23.125c-3.663.939-5.694 4.369-5.688 9.6.005 3.796.89 6.215 2.749 7.517 1.33.931 2.175 1.089 5.454 1.02l2.97-.065.572-1.566c.313-.864.622-1.734.687-1.933.107-.337-.104-.367-2.573-.367-1.818 0-2.908-.093-3.366-.288-.734-.311-1.362-1.376-1.362-2.303v-.545h10.675v-2.1c0-2.86-.437-4.698-1.507-6.321-.715-1.085-1.078-1.412-2.236-2.01-1.263-.652-1.559-.718-3.489-.775-1.16-.033-2.46.028-2.886.138v-.002Zm36.911.21c-1.511.488-3.199 1.93-3.891 3.317-.985 1.982-1.18 3.137-1.105 6.563.064 2.964.108 3.258.645 4.43.676 1.473 1.339 2.232 2.607 2.997.884.533 1.07.559 4.337.624l3.414.07.641-1.804c.352-.994.642-1.887.642-1.988 0-.098-1.339-.213-2.976-.25-2.896-.065-2.985-.081-3.51-.618-.373-.378-.574-.848-.647-1.514l-.107-.967h10.729V32.41c0-6.384-2.612-9.525-7.89-9.488-1.036.008-2.118.162-2.889.412Zm-55.874.001c-1.886.38-3.497 1.663-4.096 3.256-.234.624-.311 1.338-.255 2.351.071 1.278.177 1.598.867 2.62 1.171 1.731 2.315 2.238 5.313 2.356 2.726.109 3.1.172 3.524.606.48.487.416 1.82-.108 2.303-.379.35-.867.41-3.934.503l-3.5.105-.686 1.88c-.377 1.035-.686 1.912-.686 1.946 0 .037 2.284.037 5.081 0 4.83-.061 5.132-.089 6.156-.56 1.178-.543 2.395-1.767 2.846-2.866.158-.384.287-1.302.287-2.04 0-2.354-.87-4.048-2.617-5.09-.881-.526-1.19-.583-3.74-.69-1.539-.065-2.976-.229-3.218-.367-.79-.45-.933-1.581-.3-2.378.376-.474.538-.5 3.616-.6l3.222-.104.595-1.659c.327-.913.593-1.69.593-1.726 0-.143-8.174-.003-8.96.154Zm37.143.004a6.212 6.212 0 0 0-2.791 1.358 6.397 6.397 0 0 0-1.817 2.555c-.435 1.1-.473 1.51-.475 5.167 0 3.842.015 4.008.533 5.128.705 1.532 1.629 2.572 2.811 3.166.846.424 1.36.497 4.148.587l3.182.105.07.623c.099.882-.319 2.152-.792 2.41-.222.12-1.144.276-2.048.35-.904.07-1.642.143-1.642.16 0 .02-.281.813-.622 1.764l-.619 1.73 3.443-.071c3.051-.065 3.536-.125 4.264-.521 1.536-.842 2.589-2.42 2.908-4.364.095-.57.147-5.385.116-10.702l-.054-9.666-4.873.024c-2.68.012-5.263.1-5.742.197Zm33.019 1.466c-.348.93-.634 1.731-.634 1.778 0 .05 1.617.087 3.594.087 1.974 0 3.589.071 3.585.158-.003.087-1.758 2.59-3.902 5.566l-3.893 5.407v3.5h12.262l.644-1.833c.355-1.008.645-1.901.645-1.986 0-.083-1.664-.152-3.696-.152-2.033 0-3.696-.047-3.696-.106 0-.058 1.714-2.45 3.806-5.317l3.806-5.213-.058-1.736-.06-1.735-5.883-.055-5.885-.056-.635 1.693Zm38.513-.162c-.301.864-.549 1.674-.549 1.8 0 .156 1.045.227 3.285.227 3.012 0 3.319.036 3.696.418.44.45.533 1.259.212 1.868-.27.513-.908.732-3.98 1.369-3.19.662-4.656 1.197-5.603 2.043-2.196 1.962-2.125 5.982.136 7.575 1.661 1.176 2.067 1.237 8.568 1.314l6.005.073-.002-7.278c0-4.273-.087-7.593-.209-8.04-.255-.935-1.524-2.15-2.598-2.485-.431-.134-2.5-.292-4.599-.351l-3.813-.107-.549 1.574Zm-85.528 2.503c.903.611 1.417 1.676 1.417 2.92v.994h-6.156v-.936c0-1.393.499-2.466 1.393-2.994 1.04-.611 2.434-.606 3.348.016h-.002Zm19.69 4.855v5.33h-1.94c-1.068 0-2.175-.11-2.461-.241-.29-.135-.727-.671-.986-1.203-.419-.868-.463-1.257-.458-3.99.006-2.718.053-3.122.46-3.91.251-.48.618-.971.816-1.09.199-.118 1.308-.217 2.465-.219l2.106-.008-.002 5.331Zm17.651-4.964c.918.474 1.441 1.416 1.588 2.866l.118 1.157h-6.48l.118-1.157c.212-2.085 1.319-3.23 3.122-3.23.452 0 1.142.163 1.534.364Zm54.823 7.994v2.3h-2.677c-2.57 0-2.699-.02-3.182-.514-.628-.64-.646-1.372-.043-1.938.356-.336 4.907-2.018 5.748-2.126.085-.012.154 1.013.154 2.278Zm-32.893 10.886a6.22 6.22 0 0 0-2.977 1.294 6.402 6.402 0 0 0-1.953 2.635c-.406 1.02-.466 1.544-.466 3.994 0 2.648.033 2.893.557 3.972.811 1.676 1.607 2.546 2.962 3.246 1.107.57 1.375.62 3.359.62 1.983 0 2.251-.05 3.358-.62 1.362-.704 2.162-1.584 2.947-3.246.458-.973.556-1.511.633-3.483.078-1.965.024-2.566-.345-3.8-1.03-3.452-4.087-5.197-8.075-4.612Zm-26.872.194c-1.809.311-3.198 1.447-4.063 3.325-.505 1.098-.535 1.349-.535 4.404 0 3.128.019 3.281.575 4.433.673 1.395 2.039 2.706 3.182 3.055.46.138 2.106.245 3.833.245h3.028l-.077 1.434c-.064 1.11-.203 1.62-.622 2.268-.764 1.173-1.714 1.568-4.062 1.682-2.036.099-2.471.298-2.471 1.134 0 .343.219.379 2.311.377 1.998 0 2.446-.07 3.337-.495 1.232-.594 1.986-1.375 2.55-2.637.398-.902.417-1.337.421-10.189l.004-9.25-3.232.026c-1.78.014-3.66.099-4.179.188Zm14.616.013c-1.768.355-3.285 1.801-3.706 3.536-.147.604-.207 2.89-.17 6.375l.058 5.433.773.065.769.065v-5.885c0-6.567.021-6.686 1.437-7.581.601-.38 1.096-.467 3.047-.533l2.33-.074.29-.703c.156-.386.286-.75.286-.812 0-.178-4.115-.085-5.114.114Zm23.524-.087c-.077.078-.137 2.74-.137 5.917 0 5.745.002 5.779.516 6.826.543 1.112 1.712 2.122 2.954 2.552.431.148 2.177.24 4.567.24h3.872V45.876l-.771.065-.769.065-.056 6.948-.054 6.948h-3.081c-3.478 0-4.259-.227-5.157-1.509-.472-.672-.481-.788-.541-6.587l-.064-5.904h-.57c-.313 0-.633.06-.709.137Zm15.057 10.808v10.997h1.437v-6.27h2.937c2.743 0 3.006-.035 3.997-.538 1.252-.635 1.969-1.437 2.691-3.013.485-1.057.528-1.38.53-3.972 0-3.432-.321-4.714-1.53-6.114-1.442-1.667-2.189-1.9-6.415-2l-3.647-.089v11Zm-22.043-8.837c1.916.966 2.898 3.329 2.687 6.47-.187 2.797-1.449 4.791-3.406 5.387-1.02.311-3.143.311-4.163 0-1.146-.35-2.303-1.452-2.862-2.726-.413-.943-.487-1.45-.492-3.406-.004-2.087.046-2.406.554-3.46.309-.638.792-1.38 1.072-1.648 1.376-1.317 4.626-1.62 6.61-.617Zm-25.178 5.725V59.9l-3.132-.002c-3.864-.006-4.401-.222-5.385-2.18-.585-1.164-.62-1.376-.62-3.654 0-2.82.296-4.082 1.206-5.141.944-1.099 1.831-1.333 5.106-1.343l2.825-.01v6.165Zm55.372-5.498c.521.35 1.012.934 1.319 1.566.447.926.487 1.264.487 4.177v3.17l-.624.9c-1.171 1.697-1.584 1.85-4.95 1.85h-2.946v-6.025c0-3.313.068-6.096.155-6.183.083-.087 1.406-.126 2.94-.089 2.622.068 2.836.107 3.619.634ZM17.978 4.667c2.941-1.978 5.785-3.13 9.324-3.78 6.083-1.117 12.872.42 18.13 4.102 1.695 1.185 7.648 6.975 10.472 10.188 4.597 5.22 6.656 10.528 6.654 17.139-.002 5.435-1.53 10.216-4.639 14.523-1.686 2.335-10.49 11.218-12.5 12.613-4.003 2.776-8.085 4.167-12.803 4.358-4.496.184-7.922-.499-11.678-2.325-3.112-1.513-4.984-3.067-10.408-8.646-6.186-6.363-7.482-8.205-8.943-12.688-.966-2.964-1.18-4.473-1.167-8.15.012-3.657.292-5.26 1.503-8.643 1.43-3.98 3.275-6.441 9.598-12.792 3.343-3.357 5.203-5.057 6.457-5.899Zm17.105 8.414c3.039.79 4.117 1.546 8.507 5.952 4.468 4.485 5.68 6.106 6.53 8.743.465 1.455.55 2.084.554 4.122.004 2.084-.07 2.623-.56 4.072-.856 2.533-1.78 3.874-4.936 7.18-5.567 5.827-7.806 7.51-11.04 8.285-1.847.443-4.496.4-6.438-.105-2.77-.722-4.28-1.763-8.168-5.64-1.903-1.896-3.913-4.026-4.467-4.734-1.905-2.43-2.852-5.199-2.852-8.329 0-3.13.947-5.899 2.854-8.328.554-.706 2.796-3.071 4.979-5.256 3.226-3.227 4.248-4.118 5.442-4.76 2.958-1.585 6.444-2.023 9.595-1.202ZM16.24 30.002c.699-2.4 1.19-3.05 6.105-8.088 4.358-4.47 4.755-4.826 4.917-4.39.096.26.436 1.191.753 2.069l.576 1.594-3.783 3.84c-4.366 4.435-4.998 5.395-4.998 7.6 0 1.022.13 1.558.624 2.566 1.12 2.278 2.906 3.428 5.329 3.428 2.21 0 2.952-.446 6.184-3.726 1.716-1.739 2.854-2.745 2.94-2.6.078.13.416 1.054.748 2.054l.605 1.82-2.313 2.367c-2.722 2.787-4.254 3.708-6.785 4.079-5.877.862-11.233-3.901-11.233-9.988 0-.82.149-2.001.329-2.625h.002Zm12.776-4.015c2.48-2.485 3.605-3.244 5.63-3.8 2.27-.622 5.081-.277 7.218.887 1.658.9 3.298 2.7 4.173 4.575.684 1.466.767 1.837.84 3.692.101 2.54-.299 4.235-1.406 5.943-.734 1.138-9.544 10.267-9.712 10.068-.149-.177-1.372-3.578-1.372-3.814 0-.13 1.749-2.028 3.888-4.215 4.404-4.506 4.723-5.001 4.727-7.323.008-3.47-2.492-6.052-5.844-6.04-2.26.007-3.026.467-6.283 3.77-2.35 2.38-2.82 2.771-2.948 2.446a74.39 74.39 0 0 1-.729-2.087l-.574-1.704 2.392-2.398ZM42.83 8.495c-1.82-1.242-4.324-2.395-6.39-2.944-3.265-.864-7.94-.726-11.119.331-3.949 1.314-5.582 2.544-11.683 8.816-6.11 6.28-6.975 7.528-8.33 12.078-.513 1.712-.563 2.191-.575 5.329-.011 2.966.053 3.698.458 5.226.622 2.351 2.216 5.625 3.57 7.337 1.57 1.984 10.318 10.599 11.72 11.54 1.62 1.086 3.932 2.131 5.955 2.69 2.43.67 7.693.67 10.106-.005 1.92-.532 5.066-2.027 6.554-3.112 1.488-1.082 10.22-9.934 11.4-11.553 2.586-3.55 3.817-7.536 3.776-12.228-.02-2.179-.127-3.116-.547-4.745a20.51 20.51 0 0 0-3.371-7.167c-1.627-2.18-9.838-10.439-11.525-11.593h.002Zm-14.704.342c-1.84.4-4.054 1.339-5.692 2.412-1.401.917-9.28 8.717-10.725 10.616-2.622 3.446-3.762 7.214-3.551 11.735.168 3.595 1.186 6.538 3.24 9.374 1.314 1.81 8.613 9.106 10.114 10.107 5.852 3.905 13.505 3.868 19.266-.09 1.604-1.1 9.04-8.532 10.55-10.54a18.58 18.58 0 0 0 2.994-6.272c.58-2.205.634-6.252.108-8.253-1.165-4.426-1.945-5.633-7.092-10.942-5.582-5.757-7.284-6.964-11.268-7.994-2.3-.591-5.63-.658-7.945-.153Z" fill="#111827"/></svg><svg viewBox="0 0 32 32" id="sponsors--sponsor-1" xmlns="http://www.w3.org/2000/svg"><path d="M5.765 21.661C4.172 20.473 2.188 19.078 0 17.489l7.749-2.979 3.183 2.385c-2.385 2.781-3.973 3.776-5.167 4.771zm21.266-8.344c-.599-1.588-.995-3.181-1.593-4.771-.593-1.792-1.187-3.38-2.183-4.771-.4-.593-1.192-1.989-2.187-1.989-.199 0-.396.197-.599.197-.595.204-1.391 1.391-1.589 2.188-.593.995-1.792 2.583-2.583 3.577-.199.396-.6.797-.797.996-.593.395-1.193.995-1.984 1.391-.204 0-.401.197-.599.197-.595 0-.996.396-1.391.593-.595.6-1.193 1.391-1.787 1.991 0 .197-.204.395-.401.599l2.984 2.181c2.188-2.583 4.771-5.167 6.557-10.135 0 0-.593 5.369-5.364 11.131-2.985 3.38-5.371 5.171-5.767 5.567 0 0 .792-.197 1.589.199 1.593.593 2.385 2.781 2.984 4.369.396 1.193.989 2.188 1.391 3.38 1.589-.396 2.584-.995 3.579-1.989.989-.989 1.984-2.183 2.979-3.177 1.792-2.187 3.975-4.968 6.756-3.577.4.197.995.599 1.192.796.599.396.995.792 1.593 1.391.991.792 1.391 1.391 2.183 1.787-1.984-3.973-3.375-7.948-4.968-12.125z"/></svg><svg viewBox="0 0 32 32" id="sponsors--sponsor-2" xmlns="http://www.w3.org/2000/svg"><path d="M0 8.083v15.835h16.172L32 8.083zm4.355 2.948h.005c1.151 0 2.552.324 3.567.844l-1.093 1.907c-1.115-.541-1.672-.588-2.307-.625-.943-.052-1.417.287-1.428.651-.005.444.896.844 1.745 1.12 1.281.407 2.916.953 3.167 2.532l2.349-6.208h2.728l2.751 7.432-.011-7.432h3.161c3.011 0 4.427 1.02 4.427 3.359 0 2.099-1.452 3.355-3.916 3.355h-1.016l-.015 2.791-4.781-.005-.333-1.213a5.152 5.152 0 0 1-1.641.256 5.305 5.305 0 0 1-1.687-.265l-.475 1.223-2.667.005.12-.615a2.118 2.118 0 0 1-.12.1c-.708.572-1.609.839-2.713.859h-.287a6.735 6.735 0 0 1-3.437-.896l.973-1.932c1.052.625 1.715.76 2.605.745.463-.011.796-.095 1.015-.319a.73.73 0 0 0 .209-.495c.009-.5-.709-.733-1.579-1.005-.708-.219-1.516-.52-2.141-.984-.744-.541-1.104-1.229-1.083-2.197a2.645 2.645 0 0 1 .755-1.833c.693-.719 1.808-1.152 3.152-1.152zm14.124 2.224v2.543h.699c.921 0 1.661-.308 1.661-1.287 0-.948-.74-1.256-1.661-1.256zm-6.782 1.026-.995 3.145a2.8 2.8 0 0 0 1.005.177c.36 0 .699-.063.989-.167l-.979-3.161z"/></svg><svg aria-hidden="true" viewBox="0 0 14 14" id="sponsors--sponsor-3" xmlns="http://www.w3.org/2000/svg"><path d="M9.462 9.683c.034.002.07.006.107.006.518 0 1.036-.002 1.553.003.113.001.147-.038.142-.146-.008-.142-.002-.284-.002-.458L13 10.366l-1.738 1.28v-.437c0-.176 0-.176-.171-.176H1.163c-.16 0-.16 0-.16-.161 0-.35.005-.699-.003-1.047-.003-.113.034-.139.143-.138 1.779.003 3.558.005 5.338 0 .912-.002 1.632-.38 2.108-1.166.86-1.42-.037-3.279-1.683-3.518a2.354 2.354 0 0 0-2.669 1.961c-.022.135-.024.273-.037.435l.61-.082-.984 1.902-1.48-1.524c.122-.02.283-.043.442-.076.03-.007.075-.055.074-.084a4.506 4.506 0 0 1 .08-1.005c.003-.01-.002-.022-.005-.041a2.208 2.208 0 0 1-.895-.36c-.664-.46-1.012-1.315-.849-2.094.178-.85.819-1.485 1.647-1.642a2.045 2.045 0 0 1 1.498.28c.082.05.131.057.185-.03.031-.052.078-.093.132-.156l.193.779c.021.085.038.172.063.256.027.091-.001.132-.097.126-.279-.02-.558-.036-.837-.055-.069-.005-.137-.012-.225-.02.068-.087.13-.165.2-.25a1.068 1.068 0 0 0-.49-.2 1.33 1.33 0 0 0-1.553 1.35c.012.648.559 1.227 1.205 1.283.083.006.113-.036.145-.098.458-.879 1.147-1.5 2.084-1.823a3.69 3.69 0 0 1 4.852 2.786c.206 1.08-.028 2.067-.684 2.95a1.265 1.265 0 0 0-.05.077c-.003.005.001.014.004.034z"/></svg><svg aria-hidden="true" viewBox="0 0 14 14" id="sponsors--sponsor-4" xmlns="http://www.w3.org/2000/svg"><path d="M4.871 6.787c-.048.068-.136.194-.194.271-.029.04-.077.106.088.106h.851s.136-.183.252-.348c.155-.213.01-.658-.552-.658H3.11l-.387.523h2.09c.116-.01.106.029.058.106zm-.63.494c-.164 0-.115-.068-.086-.107.058-.068.145-.193.193-.261.049-.068.049-.107-.048-.107h-.958l-.774 1.046h1.877c.62 0 .968-.426 1.074-.571H4.242zm1.22.57h1.104l.416-.57H5.877c.01 0-.416.57-.416.57zm2.845-1.703-.425.571h-.494l.426-.57H6.71l-.736.996h2.69l.736-.997H8.306zM7.058 7.852h1.103l.416-.571H7.474l-.416.57zM1 7.503v.116h1.539l.087-.116H1zm1.79-.222H1v.116h1.703l.087-.116zM1 7.85h1.374l.087-.115H1v.116zm10.384-.222H13v-.116h-1.529l-.087.116zm-.165.223H13v-.117h-1.694l-.087.117zm.416-.571-.087.116H13V7.28h-1.365zm-1.441-.126.735-.997h-1.17l-.736.997h1.17zm-1.259.126s-.077.106-.116.164c-.135.184-.02.407.436.407h1.77l.417-.571H8.935z"/></svg><svg fill="none" viewBox="0 0 243 43" id="sponsors--techo" xmlns="http://www.w3.org/2000/svg"><path d="m41.046 34.4-8.209 8.598L2.472 43 0 40.409V8.599L8.21 0h30.364l2.472 2.59V34.4Z" fill="#111827"/><path d="m38.575 0-9.232 9.671v14.117L21.78 12.9H5.84v3.421h4.699v13.05L.002 40.408V43l2.472-.002L14.079 30.84V16.322h4.698v13.777h3.496V19.212l7.563 10.887h3.003v-18.91l8.208-8.6V0h-2.472Z" fill="#fff"/><path d="M54.181 17.077h-4.925V12.9h14.402v4.177h-4.925v13.02H54.18v-13.02ZM66.05 12.9h13.204v4.052h-8.7v2.607h7.879v3.76h-7.88v2.726h8.819v4.053H66.05V12.9Zm20.813 8.452L81.468 12.9h5.231l2.908 4.84 2.933-4.84h5.111l-5.392 8.403 5.629 8.795h-5.232l-3.144-5.183-3.165 5.183h-5.113l5.63-8.746Zm13.176-8.452h4.55v6.437h5.841V12.9h4.55v17.198h-4.55v-6.536h-5.841v6.536h-4.55V12.9Zm17.673 8.599c0-4.94 3.8-8.944 8.867-8.944 5.065 0 8.818 3.956 8.818 8.944 0 4.938-3.8 8.943-8.865 8.943-5.069 0-8.82-3.957-8.82-8.943Zm13.04 0c0-2.482-1.711-4.646-4.22-4.646-2.489 0-4.153 2.114-4.153 4.646 0 2.482 1.713 4.641 4.199 4.641 2.508 0 4.174-2.11 4.174-4.641Zm7.399-8.599h4.553v6.437h5.838V12.9h4.552v17.198h-4.552v-6.536h-5.838v6.536h-4.553V12.9Zm18.483 0h4.504v9.68l6.358-9.68h4.243v17.198h-4.503v-9.68l-6.357 9.68h-4.245V12.9Zm18.647 0h4.549v6.979l5.653-6.979h5.395l-6.215 7.395 6.425 9.803h-5.463l-4.128-6.386-1.667 1.939v4.448h-4.549V12.9Zm15.841 8.599c0-4.94 3.798-8.944 8.864-8.944 5.067 0 8.821 3.956 8.821 8.944 0 4.938-3.801 8.943-8.866 8.943-5.067 0-8.819-3.957-8.819-8.943Zm13.038 0c0-2.482-1.709-4.646-4.219-4.646-2.488 0-4.152 2.114-4.152 4.646 0 2.482 1.711 4.641 4.198 4.641 2.509 0 4.173-2.11 4.173-4.641Zm24.978-8.599h4.549v5.404h2.486c3.941 0 6.827 1.967 6.827 5.847 0 3.712-2.58 5.947-6.591 5.947h-7.271V12.9Zm6.919 13.194c1.5 0 2.392-.713 2.392-2.064 0-1.204-.892-1.99-2.369-1.99h-2.393v4.054h2.37ZM212.836 12.9v7.545c0 1.783-.172 4.362-1.296 5.274-.527.428-1.398.755-1.949.755v4.055h.432c1.573 0 3.336-.663 4.013-1.113 2.745-1.825 3.084-5.297 3.084-9.218v-3.121h3.927v13.02h4.55V12.9h-12.761Z" fill="#111827"/></svg><svg viewBox="0 0 8 4" id="triangle" xmlns="http://www.w3.org/2000/svg"><path d="m4 0 3.464 3.75H.536L4 0Z"/></svg></svg>